<?xml version="1.0" encoding="utf-8"?>
<svg xmlns="http://www.w3.org/2000/svg" version="1.1" width="1000" height="800">

<polygon points=" 0,0 1000,0 1000,800 0,800 " style="fill:#CEF6F5;stroke:black;stroke-width:30"/>
<polygon points=" 0,700 0,800 1000,800 1000,700 " style="fill:#6E6E6E;stroke:black;stroke-width:3"/>
<polygon points=" 200,580 200,630 400,630 400,580 " style="fill:black;stroke:black;stroke-width:3"/>
<polygon points=" 200,632.5 200,697.5 250,697.5 250,632.5 " style="fill:black;stroke:black;stroke-width:3"/>
<polygon points=" 350,632.5 350,697.5 400,697.5 400,632.5 " style="fill:black;stroke:black;stroke-width:3"/>
<polygon points=" 425,420 425,570 575,570 575,420 " style="fill:#04B4AE;stroke:black;stroke-width:3"/>
<polygon points=" 470,390 470,420 530,420 530,390 " style="fill:#2EFEC8;stroke:black;stroke-width:3"/>
<polygon points=" 325,430 325,470 425,470 425,430 " style="fill:#2EFEC8;stroke:black;stroke-width:3"/>
<polygon points=" 575,430 575,470 675,470 675,430 " style="fill:#2EFEC8;stroke:black;stroke-width:3"/>
<polygon points=" 677.5,422.5 677.5,437.5 712.5,437.5 712.5,422.5 " style="fill:blue;stroke:black;stroke-width:3"/>
<polygon points=" 677.5,462.5 677.5,477.5 712.5,477.5 712.5,462.5 " style="fill:blue;stroke:black;stroke-width:3"/>
<polygon points=" 287.5,422.5 287.5,437.5 322.5,437.5 322.5,422.5 " style="fill:blue;stroke:black;stroke-width:3"/>
<polygon points=" 287.5,462.5 287.5,477.5 322.5,477.5 322.5,462.5 " style="fill:blue;stroke:black;stroke-width:3"/>
<polygon points=" 442.5,570 442.5,660 487.5,660 487.5,570 " style="fill:#2EFEC8;stroke:black;stroke-width:3"/>
<polygon points=" 512.5,570 512.5,660 557.5,660 557.5,570 " style="fill:#2EFEC8;stroke:black;stroke-width:3"/>
<polygon points=" 515,662.5 515,697.5 585,697.5 585,662.5 " style="fill:#5882FA;stroke:black;stroke-width:3"/>
<polygon points=" 415,662.5 415,697.5 485,697.5 485,662.5 " style="fill:#5882FA;stroke:black;stroke-width:3"/>
<polygon points=" 395,290 395,390 605,390 605,290 " style="fill:#2EFEC8;stroke:black;stroke-width:3"/>
<polygon points=" 490,190 490,290 510,290 510,190 " style="fill:#F78181;stroke:black;stroke-width:3"/>
<polygon points=" 440,300 440,340 480,340 480,300 " style="fill:#CEF6EC;stroke:black;stroke-width:3"/>
<polygon points=" 520,300 520,340 560,340 560,300 " style="fill:#CEF6EC;stroke:black;stroke-width:3"/>
<polygon points=" 455,315 455,325 465,325 465,315 " style="fill:#170B3B;stroke:black;stroke-width:3"/>
<polygon points=" 535,315 535,325 545,325 545,315 " style="fill:#170B3B;stroke:black;stroke-width:3"/>
<polygon points=" 472.5,357.5 472.5,372.5 527.5,372.5 527.5,357.5 " style="fill:#CEF6EC;stroke:black;stroke-width:3"/>


</svg>
